<svg width="124" height="171" viewBox="0 0 124 171" fill="none" xmlns="http://www.w3.org/2000/svg">
<rect width="124" height="171" fill="black"/>
<path d="M43.0911 43H45.1071V35.368H47.6991L52.3071 43H54.7791L49.9551 35.176C52.5951 34.768 54.2031 33.16 54.2031 30.688C54.2031 26.488 50.7231 26.008 47.4351 26.008H43.0911V43ZM45.1071 27.88H47.9391C49.9071 27.88 52.0431 28.24 52.0431 30.688C52.0431 33.496 49.1391 33.496 46.9071 33.496H45.1071V27.88ZM65.971 39.856C65.083 40.984 64.003 41.56 62.395 41.56C60.355 41.56 58.867 39.904 58.723 37.96H67.795V37.36C67.795 33.64 65.635 31.48 62.467 31.48C59.155 31.48 56.707 33.904 56.707 37.384C56.707 40.648 58.867 43.288 62.395 43.288C64.483 43.288 66.067 42.664 67.387 40.96L65.971 39.856ZM58.723 36.376C58.963 34.48 60.331 33.208 62.395 33.208C64.459 33.208 65.707 34.48 65.779 36.376H58.723ZM71.5789 43H73.4509V33.352H76.1869V31.768H73.4509V29.656C73.4509 27.712 73.5229 26.296 75.4669 26.296C75.8989 26.296 76.3309 26.392 76.7389 26.536L77.0029 24.856C76.6429 24.664 76.0429 24.568 75.5629 24.568C72.5389 24.568 71.5789 26.512 71.5789 29.248V31.768H69.1309V33.352H71.5789V43ZM79.6772 40.264C78.8852 40.264 78.2372 40.912 78.2372 41.704C78.2372 42.496 78.9332 43.144 79.6772 43.144C80.4212 43.144 81.1172 42.496 81.1172 41.704C81.1172 40.912 80.4692 40.264 79.6772 40.264Z" fill="white"/>
<rect x="39" y="65" width="52" height="2" fill="white"/>
<rect x="39" y="84" width="52" height="2" fill="white"/>
<rect x="39" y="105" width="52" height="2" fill="white"/>
<path d="M23.84 70.83L19.67 66.66L18.25 68.07L23.84 73.66L35.84 61.66L34.43 60.25L23.84 70.83Z" fill="white"/>
<path d="M23.84 89.83L19.67 85.66L18.25 87.07L23.84 92.66L35.84 80.66L34.43 79.25L23.84 89.83Z" fill="white"/>
<path d="M23.84 105.83L19.67 101.66L18.25 103.07L23.84 108.66L35.84 96.66L34.43 95.25L23.84 105.83Z" fill="white"/>
</svg>
