<svg width="40" height="54" viewBox="0 0 40 54" fill="none" xmlns="http://www.w3.org/2000/svg">
<path d="M1 4.11736C1 2.46051 2.34315 1.11737 4 1.11737H32.35H36C37.6569 1.11737 39 2.46051 39 4.11737V39.9144C39 40.7144 38.6805 41.4811 38.1126 42.0444L28.075 52H4C2.34314 52 1 50.6569 1 49V4.11736Z" fill="#EFEFEF"/>
<path d="M5 0.25H35C37.6234 0.25 39.75 2.37665 39.75 5V40.1519C39.75 41.348 39.3001 42.4985 38.4856 43.3733C37.0139 44.9541 34.5707 47.5672 32.4467 49.7847C31.3845 50.8937 30.4035 51.9023 29.6643 52.6331C29.2943 52.9989 28.9873 53.2926 28.762 53.494C28.6488 53.5952 28.5602 53.6695 28.4964 53.7173C28.4775 53.7315 28.4625 53.742 28.4511 53.7496C27.4363 53.7377 12.7744 53.48 4.90626 53.3412C2.31671 53.2955 0.25 51.1835 0.25 48.5923V4.99999C0.25 2.37664 2.37665 0.25 5 0.25Z" fill="#EFEFEF" stroke="black" stroke-width="0.5"/>
<path d="M35 2.00065C35 1.60065 34.6667 0.833983 34.5 0.500649C35.3333 0.500649 35.5854 0.294278 37 1.00065C38 1.5 39.5 2.88262 39.5 4.00065C39.5 5.00065 39.8333 29.1673 39.5 42.0007L35 42.2742V2.00065Z" fill="#B8B8B8"/>
<path d="M39.5005 42L30.5485 42.5217C30.2427 42.5396 29.0571 42.5217 28.5606 43.5652C28.0581 44.6214 28.3343 50.3696 28.5 53.5L39.5005 42Z" fill="#A2A1A1"/>
<path d="M10.904 17.312C10.904 17.504 10.8187 17.68 10.648 17.84C10.4773 17.9893 10.2907 18.064 10.088 18.064C9.896 18.064 9.76267 17.936 9.688 17.68C9.656 16.272 9.64 14.8693 9.64 13.472L9.592 9.44C9.592 8.62933 9.94933 8.07467 10.664 7.776C11.24 7.50933 11.9227 7.376 12.712 7.376C13.1173 7.376 13.5493 7.47733 14.008 7.68C14.4773 7.872 14.8933 8.16 15.256 8.544C15.6293 8.91733 15.816 9.328 15.816 9.776C15.816 10.2133 15.6133 10.688 15.208 11.2C14.8027 11.7013 14.3013 12.1493 13.704 12.544C13.1067 12.928 12.5253 13.216 11.96 13.408C12.952 14.1013 13.816 14.848 14.552 15.648C15.288 16.4373 15.656 17.0507 15.656 17.488C15.656 17.6267 15.5867 17.76 15.448 17.888C15.3093 18.0053 15.1387 18.064 14.936 18.064C14.744 18.064 14.5787 17.9787 14.44 17.808C14.2053 17.2427 13.7573 16.6507 13.096 16.032C12.4453 15.4027 11.6827 14.8053 10.808 14.24L10.904 17.312ZM10.84 12.512C11.5547 12.48 12.3547 12.1813 13.24 11.616C14.136 11.0507 14.584 10.544 14.584 10.096C14.584 9.63733 14.36 9.28533 13.912 9.04C13.464 8.79467 12.9307 8.672 12.312 8.672C11.704 8.672 11.2187 8.74667 10.856 8.896C10.8453 9.44 10.84 10.6453 10.84 12.512ZM17.1456 12.496C16.9963 12.4 16.9216 12.2613 16.9216 12.08C16.9216 11.8987 16.9803 11.7333 17.0976 11.584C17.055 10.5173 17.0336 9.392 17.0336 8.208C17.0976 7.952 17.1936 7.76533 17.3216 7.648C17.4603 7.53067 17.6576 7.456 17.9136 7.424C19.3216 7.488 20.847 7.52 22.4896 7.52C22.895 7.60533 23.0976 7.78133 23.0976 8.048C23.0976 8.496 22.6603 8.75733 21.7856 8.832C21.551 8.84267 21.295 8.848 21.0176 8.848H19.9776C19.775 8.848 19.215 8.80533 18.2976 8.72C18.2976 10.0533 18.319 10.9707 18.3616 11.472C18.927 11.4827 20.015 11.488 21.6256 11.488C22.0096 11.5627 22.2016 11.7387 22.2016 12.016C22.2016 12.2827 22.047 12.4907 21.7376 12.64C21.7056 12.6613 21.647 12.6827 21.5616 12.704L18.7936 12.656C18.623 12.656 18.4843 12.6667 18.3776 12.688L18.4416 15.44C18.4416 16.0587 18.4256 16.5013 18.3936 16.768L22.1056 16.72C22.447 16.7733 22.6176 16.9173 22.6176 17.152C22.6176 17.312 22.543 17.472 22.3936 17.632C22.255 17.792 22.0896 17.8933 21.8976 17.936L17.8016 18C17.5563 18 17.3856 17.9573 17.2896 17.872C17.1936 17.776 17.1456 17.6213 17.1456 17.408C17.1883 17.1093 17.2096 16.6293 17.2096 15.968V14.848L17.1456 12.496ZM26.7038 7.632L28.4798 7.6C29.2691 7.6 29.6638 7.808 29.6638 8.224C29.6638 8.37333 29.6424 8.48 29.5998 8.544C29.5571 8.59733 29.5251 8.64 29.5038 8.672C29.4824 8.704 29.4398 8.73067 29.3758 8.752C29.2478 8.79467 29.1411 8.82133 29.0558 8.832C28.9704 8.84267 28.9118 8.848 28.8798 8.848C28.7624 8.86933 28.5651 8.88533 28.2878 8.896C28.0104 8.90667 27.6051 8.912 27.0718 8.912C26.5491 8.912 25.9038 8.89067 25.1358 8.848V11.792H28.3998C28.5171 11.792 28.6238 11.8453 28.7198 11.952C28.8264 12.0587 28.8798 12.176 28.8798 12.304C28.8798 12.7947 28.6718 13.04 28.2558 13.04H25.1358L25.1998 17.232C25.1998 17.776 25.0131 18.048 24.6398 18.048C24.2771 18.048 24.0638 17.8027 23.9998 17.312C23.9678 17.152 23.9464 15.7973 23.9358 13.248C23.9358 10.688 23.9251 9.216 23.9038 8.832C23.5091 8.87467 23.3117 8.65067 23.3117 8.16C23.3117 8.032 23.3651 7.89333 23.4718 7.744C23.5784 7.584 23.6691 7.49867 23.7438 7.488C23.8291 7.47733 23.9304 7.472 24.0478 7.472C24.1758 7.472 24.4798 7.49333 24.9598 7.536C25.6211 7.6 26.2024 7.632 26.7038 7.632Z" fill="black"/>
<line x1="7.5" y1="20.5" x2="32.5" y2="20.5" stroke="black" stroke-linecap="round"/>
<line x1="7.5" y1="26.5" x2="32.5" y2="26.5" stroke="black" stroke-linecap="round"/>
<line x1="7.5" y1="32.5" x2="32.5" y2="32.5" stroke="black" stroke-linecap="round"/>
<line x1="7.5" y1="38.5" x2="32.5" y2="38.5" stroke="black" stroke-linecap="round"/>
<line x1="7.5" y1="44.5" x2="20.5" y2="44.5" stroke="black" stroke-linecap="round"/>
</svg>
