<svg width="121" height="156" viewBox="0 0 121 156" fill="none" xmlns="http://www.w3.org/2000/svg">
<path d="M106 155H15C7.26801 155 1 148.732 1 141V15C1 7.26802 7.26801 1 15 1H94.5586C97.5903 1 100.54 1.98411 102.964 3.80438L114.406 12.3947C117.928 15.039 120 19.1863 120 23.5903V141C120 148.732 113.732 155 106 155Z" fill="#D9D9D9" stroke="black" stroke-width="2"/>
<path d="M119.581 20.2208C119.581 20.2208 121.478 13.6192 97.6584 1.23828C96.6596 7.01122 96.7028 11.5557 100.054 15.2749C103.405 18.994 119.581 20.2208 119.581 20.2208Z" stroke="black" stroke-width="1.5"/>
<path d="M21.2703 39.8887H22.6143V35.5207H24.1123L26.6323 39.8887H28.3123L25.4983 35.3667C26.9963 35.1987 27.9343 34.0087 27.9343 32.7487C27.9343 31.5027 27.2903 29.9767 24.7563 29.9767H21.2703V39.8887ZM22.6143 31.1527H24.3783C25.4423 31.1527 26.5063 31.4047 26.5063 32.7487C26.5063 34.0927 25.4423 34.3447 24.3783 34.3447H22.6143V31.1527ZM29.7869 39.8887H36.4369V38.6287H31.1309V35.4507H35.8349V34.1907H31.1309V31.2367H36.1849V29.9767H29.7869V39.8887ZM38.3035 39.8887H39.6475V35.6047H44.1975V34.3447H39.6475V31.2367H44.5335V29.9767H38.3035V39.8887ZM46.3006 39.8887H52.9506V38.6287H47.6446V35.4507H52.3486V34.1907H47.6446V31.2367H52.6986V29.9767H46.3006V39.8887ZM54.8172 39.8887H56.1612V35.5207H57.6592L60.1792 39.8887H61.8592L59.0452 35.3667C60.5432 35.1987 61.4812 34.0087 61.4812 32.7487C61.4812 31.5027 60.8372 29.9767 58.3032 29.9767H54.8172V39.8887ZM56.1612 31.1527H57.9252C58.9892 31.1527 60.0532 31.4047 60.0532 32.7487C60.0532 34.0927 58.9892 34.3447 57.9252 34.3447H56.1612V31.1527ZM63.3337 39.8887H69.9837V38.6287H64.6777V35.4507H69.3817V34.1907H64.6777V31.2367H69.7317V29.9767H63.3337V39.8887ZM71.8503 39.8887H73.1943V31.7407H73.2223L78.7383 39.8887H80.4463V29.9767H79.1023V38.1247H79.0743L73.6143 29.9767H71.8503V39.8887ZM90.9729 31.2647C90.1749 30.2147 88.8029 29.7247 87.5009 29.7247C84.4489 29.7247 82.3349 31.9367 82.3349 35.0167C82.3349 37.5087 84.2809 40.1407 87.4309 40.1407C89.6989 40.1407 90.8889 38.8107 91.1829 38.4047L90.0489 37.5507C89.4609 38.3767 88.5929 38.8807 87.4589 38.8807C85.1489 38.8807 83.7629 37.1027 83.7629 35.0167C83.7629 32.7627 85.2329 30.9847 87.4589 30.9847C88.3689 30.9847 89.2929 31.3907 89.8529 32.1187L90.9729 31.2647ZM92.7663 39.8887H99.4163V38.6287H94.1103V35.4507H98.8143V34.1907H94.1103V31.2367H99.1643V29.9767H92.7663V39.8887Z" fill="black"/>
<rect x="19.0547" y="70.1582" width="74.315" height="3.30159" fill="black"/>
<rect x="19.0547" y="82.5391" width="74.315" height="3.30159" fill="black"/>
<rect x="19.0547" y="96.5723" width="74.315" height="3.30159" fill="black"/>
</svg>
