<?xml version="1.0" encoding="utf-8"?>
<svg version="1.1" id="Layer_1" x="0px" y="0px" viewBox="0 0 576 512" style="enable-background:new 0 0 576 512;" xmlns="http://www.w3.org/2000/svg">
  <style type="text/css">
	.st0{fill:none;}
</style>
  <g>
    <path class="st0" d="M112,256h160c8.8,0,16-7.2,16-16s-7.2-16-16-16H112c-8.8,0-16,7.2-16,16S103.2,256,112,256z"/>
    <path class="st0" d="M464,320H112c-8.8,0-16,7.2-16,16s7.2,16,16,16h352c8.8,0,16-7.2,16-16S472.8,320,464,320z"/>
    <path class="st0" d="M456,160h-80c-13.3,0-24,10.7-24,24v48c0,13.3,10.7,24,24,24h80c13.3,0,24-10.7,24-24v-48 C480,170.7,469.3,160,456,160z"/>
    <path d="M151.8,170.3c2-0.1,4-0.5,6.1-1c2.1-0.5,3.9-1.3,5.4-2.2c6.9-4.1,10.4-11.2,10.4-21.2c0-7.1-1.5-12.4-4.6-15.9 c-3-3.5-6.8-5.8-11.3-6.7c-4.5-1-9.9-1.4-16.2-1.4H128v48.6h15.7C147.1,170.5,149.8,170.4,151.8,170.3z" style="fill: rgb(84, 86, 92);"/>
    <path d="M512,64H64C28.7,64,0,92.7,0,128v256c0,35.3,28.7,64,64,64h448c35.3,0,64-28.7,64-64V128C576,92.7,547.3,64,512,64z M200.8,173.7c0.5-1,1.2-2.5,2.3-4.3l26.2-46.5c0.7-1.3,1.6-2.9,2.7-4.8c1-1.9,2.2-3.4,3.3-4.7c1.2-1.2,2.7-2.2,4.7-3 c1.9-0.8,4.3-1.1,7.1-1.1c2.9,0,5.3,0.4,7.2,1.1c1.9,0.8,3.5,1.8,4.7,3c1.2,1.2,2.2,2.5,3,3.9c0.8,1.4,1.8,3.2,3.1,5.5l26.7,46.2 c2.1,3.5,3.1,6.1,3.1,7.7c0,1.7-1,3.2-3,4.6c-2,1.4-4.4,2.1-7.1,2.1c-1.6,0-3-0.2-4.2-0.6c-1.2-0.4-2.1-1-2.9-1.7 c-0.8-0.7-1.6-1.8-2.5-3.2c-0.9-1.4-1.7-2.7-2.3-3.8l-4.9-9h-41.6l-4.9,9.2c-1.9,3.6-3.5,6-4.9,7.3c-1.3,1.3-3.6,1.9-6.6,1.9 c-2.6,0-4.9-0.7-6.9-2c-2-1.3-3-2.8-3-4.5C200.1,175.7,200.3,174.7,200.8,173.7z M107.3,119.3c0-3.1,1-5.4,3-6.8 c2-1.4,5.2-2.1,9.7-2.1h27c7,0,13,0.5,18.1,1.4c5,0.9,9.6,2.6,13.7,5.1c10.6,6.4,16,16.1,16,29.1c0,4.3-0.5,8.2-1.6,11.8 c-1.1,3.5-2.7,6.7-5,9.6c-2.2,2.8-5.1,5.4-8.6,7.6c-2.7,1.7-5.7,3.1-9,4.2c-3.3,1-6.8,1.8-10.5,2.2c-3.7,0.4-8,0.6-12.7,0.6h-27 c-3.8,0-6.6-0.4-8.5-1.2c-1.9-0.8-3.2-1.9-3.7-3.4c-0.6-1.4-0.9-3.3-0.9-5.6V119.3z M112,224h160c8.8,0,16,7.2,16,16s-7.2,16-16,16 H112c-8.8,0-16-7.2-16-16S103.2,224,112,224z M464,352H112c-8.8,0-16-7.2-16-16s7.2-16,16-16h352c8.8,0,16,7.2,16,16 S472.8,352,464,352z M480,232c0,13.3-10.7,24-24,24h-80c-13.3,0-24-10.7-24-24v-48c0-13.3,10.7-24,24-24h80c13.3,0,24,10.7,24,24 V232z" style="fill: rgb(84, 86, 92);"/>
    <polygon points="247,124.5 231.8,154 262.4,154 &#9;" style="fill: rgb(84, 86, 92);"/>
  </g>
</svg>